<svg width="20" height="20" viewBox="0 0 20 20" fill="none" xmlns="http://www.w3.org/2000/svg">
<path d="M9.75684 6.26465C7.27246 6.26465 5.26855 8.26855 5.26855 10.7529C5.26855 13.2373 7.27246 15.2412 9.75684 15.2412C12.2412 15.2412 14.2451 13.2373 14.2451 10.7529C14.2451 8.26855 12.2412 6.26465 9.75684 6.26465ZM9.75684 13.6709C8.15137 13.6709 6.83887 12.3623 6.83887 10.7529C6.83887 9.14355 8.14746 7.83496 9.75684 7.83496C11.3662 7.83496 12.6748 9.14355 12.6748 10.7529C12.6748 12.3623 11.3623 13.6709 9.75684 13.6709ZM15.4756 6.08105C15.4756 6.66309 15.0068 7.12793 14.4287 7.12793C13.8467 7.12793 13.3818 6.65918 13.3818 6.08105C13.3818 5.50293 13.8506 5.03418 14.4287 5.03418C15.0068 5.03418 15.4756 5.50293 15.4756 6.08105ZM18.4482 7.14355C18.3818 5.74121 18.0615 4.49902 17.0342 3.47559C16.0107 2.45215 14.7686 2.13184 13.3662 2.06152C11.9209 1.97949 7.58887 1.97949 6.14355 2.06152C4.74512 2.12793 3.50293 2.44824 2.47559 3.47168C1.44824 4.49512 1.13184 5.7373 1.06152 7.13965C0.979492 8.58496 0.979492 12.917 1.06152 14.3623C1.12793 15.7646 1.44824 17.0068 2.47559 18.0303C3.50293 19.0537 4.74121 19.374 6.14355 19.4443C7.58887 19.5264 11.9209 19.5264 13.3662 19.4443C14.7686 19.3779 16.0107 19.0576 17.0342 18.0303C18.0576 17.0068 18.3779 15.7646 18.4482 14.3623C18.5303 12.917 18.5303 8.58887 18.4482 7.14355ZM16.5811 15.9131C16.2764 16.6787 15.6865 17.2686 14.917 17.5771C13.7646 18.0342 11.0303 17.9287 9.75684 17.9287C8.4834 17.9287 5.74512 18.0303 4.59668 17.5771C3.83105 17.2725 3.24121 16.6826 2.93262 15.9131C2.47559 14.7607 2.58105 12.0264 2.58105 10.7529C2.58105 9.47949 2.47949 6.74121 2.93262 5.59277C3.2373 4.82715 3.82715 4.2373 4.59668 3.92871C5.74902 3.47168 8.4834 3.57715 9.75684 3.57715C11.0303 3.57715 13.7686 3.47559 14.917 3.92871C15.6826 4.2334 16.2725 4.82324 16.5811 5.59277C17.0381 6.74512 16.9326 9.47949 16.9326 10.7529C16.9326 12.0264 17.0381 14.7646 16.5811 15.9131Z" fill="#0A0A0A"/>
</svg>
