<svg width="370" height="323" viewBox="0 0 370 323" fill="none" xmlns="http://www.w3.org/2000/svg">
<path d="M229.955 135.675L234.939 130.839C233.382 122.103 225.204 117.911 219.811 117.345C205.306 115.805 197.926 125.789 194.811 141.798C189.126 171.029 196.291 293.762 196.291 293.762C196.817 290.505 236.205 167.246 235.193 133.394L229.955 135.675Z" fill="#96D9C9"/>
<path d="M44.773 242.009L44.2278 245.987L42.9428 241.385C39.3408 240.254 36.2061 239.864 33.7139 240.429C11.5177 245.48 49.8742 276.056 49.8742 276.056C49.8742 276.056 37.6469 268.373 25.8089 263.498L25.6532 267.515L24.1345 262.971C14.9445 259.364 6.39702 257.706 4.7031 262.913C3.10654 267.807 6.31914 272.448 11.8876 276.582L18.2739 276.816L14.5161 278.396C27.3471 286.625 48.5892 292.514 55.9295 293.859C48.9202 292.748 31.7668 290.525 21.6228 292.709L23.2194 295.361L19.2085 293.352C15.6454 294.503 13.4453 296.394 13.6789 299.397C14.1267 305.13 38.9319 307.178 38.9319 307.178L129.547 306.339L130.053 306.593C130.072 306.593 73.9979 252.734 44.773 242.009Z" fill="#3C8F7C"/>
<path d="M359.472 293.118C357.447 283.739 337.003 280.989 310.913 286.137C320.2 282.959 332.953 275.724 339.573 272.429L335.056 269.543L344.129 269.972C351.547 265.623 355.266 261.353 352.832 257.472C351.021 254.586 347.049 253.377 341.656 253.397L338.814 258.486L339.398 253.475C325.807 254.255 322.731 252.032 304.41 259.461C315.858 253.514 317.513 251.661 318.272 249.263L312.061 246.552H319.324C325.204 240.215 334.511 227.696 330.656 221.924C327.462 217.166 313.463 223.776 304.526 227.208L300.73 235.769L301.508 228.456C273.082 240.858 282.72 230.913 282.72 230.913C282.72 230.913 312.392 169.449 294.908 170.834C288.016 171.38 280.578 175.553 273.296 182.222L273.121 188.325L270.96 184.445C265.644 189.651 260.387 195.969 255.383 202.736C262.178 188.423 267.338 174.363 267.864 163.911L262.665 163.287L267.786 159.719C267.299 154.434 265.216 150.437 260.971 148.311C254.468 145.074 247.654 149.969 240.936 159.719L242.591 168.513L238.425 163.58C214.379 202.833 192.397 299.436 192.397 299.436L190.645 304.682L261.283 308.172C261.283 308.153 363.541 312.033 359.472 293.118Z" fill="#50BFA5"/>
<path d="M368.214 308.621H1.72413C1.12055 308.621 0.614319 308.094 0.614319 307.451C0.614319 306.807 1.10108 306.281 1.72413 306.281H368.214C368.817 306.281 369.324 306.807 369.324 307.451C369.324 308.094 368.837 308.621 368.214 308.621Z" fill="#184655"/>
<path d="M255.597 266.988H89.9246C83.5968 266.988 78.4761 262.328 78.4761 256.575V250.394C78.4761 244.641 83.5968 239.981 89.9246 239.981H255.597C248.023 247.508 247.887 259.013 255.286 266.676L255.597 266.988Z" fill="#86B1F2"/>
<path d="M253.28 243.081H169.909C164.165 243.081 159.511 247.742 159.511 253.494C159.511 259.247 164.165 263.907 169.909 263.907H253.28C249.386 257.511 249.386 249.438 253.28 243.081Z" fill="#FAE0B2"/>
<path d="M248.14 210.458C248.51 209.834 247.946 209.112 247.108 209.112H115.178C104.839 209.112 96.4471 216.035 96.4471 224.595C96.4471 233.136 104.839 240.078 115.178 240.078H247.147C247.985 240.078 248.549 239.357 248.179 238.733C242.942 229.763 242.961 219.35 248.14 210.458Z" fill="#355389"/>
<path d="M253.369 214H164.838C158.296 214 153 219.304 153 225.856V226.753C153 233.305 158.296 238.609 164.838 238.609H253.545C249.592 230.731 249.534 221.897 253.369 214Z" fill="#FAE0B2"/>
<path d="M87.5687 207.728H172.712C180.267 207.728 186.381 201.117 186.381 192.966C186.381 184.815 180.267 178.205 172.712 178.205H87.5687C94.0718 186.395 94.3249 198.407 88.1723 206.889L87.5687 207.728Z" fill="#FAE0B2"/>
<path d="M185.251 192.966C185.251 184.815 179.06 178.205 171.427 178.205H86.0111C85.6216 178.205 85.2906 177.854 85.2906 177.425C85.2906 176.996 85.6216 176.664 86.0111 176.664H221.505C229.936 176.664 236.77 183.957 236.77 192.966C236.77 201.975 229.936 209.268 221.505 209.268H86.0111C85.6216 209.268 85.2906 208.937 85.2906 208.508C85.2906 208.079 85.6022 207.728 86.0111 207.728H171.427C179.06 207.728 185.251 201.117 185.251 192.966Z" fill="#466EB6"/>
<path d="M191.287 224.829H182.175C180.208 224.829 178.631 225.434 178.631 226.194V226.311H191.287V224.829Z" fill="#FF4C16"/>
<path d="M199.075 228.242C199.075 226.35 196.7 224.829 193.76 224.829H182.058C184.278 224.829 186.088 225.98 186.088 227.423L186.03 263.966L192.494 259.266L199.075 263.966V228.242Z" fill="#F47458"/>
<path d="M323.705 266.93H77.5415C69.8897 266.93 63.6981 273.131 63.6981 280.794V292.455C63.6981 300.119 69.8897 306.32 77.5415 306.32H323.705L323.568 306.183C313.054 295.205 313.113 277.85 323.705 266.93Z" fill="#B75742"/>
<path d="M319.343 272.76H187.743C180.092 272.76 173.9 278.961 173.9 286.625C173.9 294.288 180.092 300.489 187.743 300.489H319.343C314.515 291.909 314.515 281.34 319.343 272.76Z" fill="#FAE0B2"/>
<path d="M254.741 286.703H244.071C241.774 286.703 239.924 288.575 239.924 290.856V291.227H254.76V286.703H254.741Z" fill="#13375B"/>
<path d="M244.499 286.722C247.05 286.722 250.866 288.887 253.008 291.558L278.319 322.992H293.195L269.129 293.099C266.306 289.589 261.283 286.722 257.914 286.722H244.499Z" fill="#355389"/>
<path d="M65.9956 185.205C59.6872 186.161 57.7012 194.409 62.8998 198.173C63.8344 198.855 64.4769 199.85 64.73 200.981L65.6257 204.842C65.8788 205.914 66.8912 206.597 67.9816 206.441L70.3764 206.07C71.4473 205.914 72.2261 204.939 72.1482 203.847C71.8756 199.869 71.4862 198.426 72.7907 196.671C76.6264 191.543 72.304 184.25 65.9956 185.205Z" fill="#FFF4E1"/>
<path d="M67.3585 203.418C67.0275 203.457 66.7355 203.243 66.6965 202.931L65.5283 194.507L63.5618 192.81C63.3087 192.596 63.2892 192.225 63.5034 191.991C63.7176 191.738 64.0875 191.718 64.3211 191.933L66.6186 193.902L67.8647 202.755C67.9037 203.087 67.67 203.379 67.3585 203.418Z" fill="#FAE0B2"/>
<path d="M70.2985 203.34C70.6295 203.282 70.8437 202.989 70.7853 202.677L69.4224 194.292L70.8048 192.089C70.98 191.816 70.9021 191.465 70.6295 191.289C70.3569 191.114 70.0065 191.192 69.8312 191.465L68.2152 194.039L69.656 202.872C69.6755 203.165 69.9675 203.379 70.2985 203.34Z" fill="#FAE0B2"/>
<path d="M64.6911 200.883C64.6911 200.922 64.7106 200.942 64.7106 200.981L65.6062 204.842C65.8593 205.914 66.8718 206.597 67.9621 206.441L70.357 206.07C71.4278 205.914 72.2066 204.939 72.1288 203.847C72.0119 202.073 71.8562 200.805 71.8562 199.791L64.6911 200.883Z" fill="#96D9C9"/>
<path d="M64.8079 123.722L62.3157 120.095L57.9155 120.114C57.4092 120.114 57.1366 119.549 57.4287 119.139L60.0961 115.649L58.7332 111.476C58.5774 111.008 59.0253 110.559 59.512 110.715L63.6592 112.178L67.1833 109.565C67.5922 109.272 68.1568 109.565 68.1374 110.072L68.04 114.479L71.6031 117.053C72.012 117.345 71.8951 117.969 71.4278 118.125L67.2223 119.393L65.8788 123.585C65.723 124.053 65.0805 124.151 64.8079 123.722Z" fill="#F47458"/>
<path d="M296.232 130.293L294.402 127.641H291.17C290.8 127.641 290.586 127.212 290.819 126.92L292.786 124.346L291.773 121.265C291.656 120.914 291.987 120.582 292.338 120.699L295.375 121.772L297.984 119.861C298.276 119.646 298.705 119.861 298.685 120.231L298.607 123.468L301.216 125.36C301.508 125.574 301.431 126.042 301.08 126.14L297.984 127.076L296.991 130.157C296.913 130.527 296.446 130.586 296.232 130.293Z" fill="#9BC1F9"/>
<path d="M244.791 91.1958L240.722 90.5133L238.347 93.9843L233.849 92.8923L232.447 97.3578L227.307 96.3633L225.516 100.322L220.415 100.166L220.473 98.2353L224.289 98.3523L226.178 94.1598L231.123 95.1348L232.545 90.5913L237.509 91.7808L239.826 88.4073L243.584 89.0313L244.655 86.4963L246.427 87.2373L244.791 91.1958Z" fill="#F48C7F"/>
<path d="M129.566 103.812L126.587 104.709L124.582 100.088L120.084 100.887L118.02 97.6699L116.385 98.7229L119.15 103.013L123.414 102.252L125.497 107.069L129.975 105.704L129.566 103.812Z" fill="#50BFA5"/>
<path d="M42.0471 152.816L37.6079 155.526L42.2224 176.294C42.6118 178.088 44.6562 178.965 46.2333 178.01C47.2262 177.405 47.713 176.235 47.4599 175.104L46.3306 170.229L51.0035 167.382L54.8586 170.619C55.7348 171.36 56.9809 171.458 57.9739 170.853L58.0517 170.795C59.6288 169.839 59.7846 167.616 58.3827 166.446L42.0471 152.816ZM45.0456 165.335L44.1889 161.513L47.1873 164.028L45.0456 165.335Z" fill="#F48C7F"/>
<path d="M310.426 172.472C310.66 171.887 310.582 169.781 313.502 167.753C314.709 166.934 315.683 166.232 315.955 165.276C316.423 163.619 314.67 162.819 312.938 162.839C312.042 162.839 311.302 162.117 311.283 161.22C311.263 160.304 311.964 159.543 312.879 159.504C313.872 159.465 315.04 159.543 316.286 159.894C320.005 160.928 321.135 163.463 320.492 165.803C319.888 167.948 318.175 169.001 316.773 169.879C314.417 171.38 314.417 173.057 314.223 173.525L310.426 172.472ZM308.615 176.157C309.024 174.656 310.367 173.876 311.847 174.285C313.366 174.714 314.067 176.06 313.677 177.561C313.269 179.024 311.945 179.843 310.426 179.434C308.907 179.024 308.206 177.639 308.615 176.157Z" fill="#1D1D1D"/>
<path d="M94.0718 121.362C95.2205 121.46 97.4402 121.928 99.4846 122.513C101.996 123.234 103.456 123.917 104.566 125.067C105.637 126.101 106.202 127.602 105.735 129.26C105.267 130.878 103.904 132.126 101.626 132.302L101.607 132.36C103.515 133.53 104.605 135.519 103.943 137.879C103.476 139.517 102.347 140.609 100.945 141.194C99.3288 141.876 96.9339 141.837 93.3319 140.804C91.307 140.219 89.8467 139.653 88.9511 139.263L94.0718 121.362ZM96.1551 129.494L97.4986 129.884C99.6598 130.508 101.062 129.942 101.451 128.597C101.84 127.212 101.003 126.198 99.1341 125.652C98.2384 125.399 97.7128 125.301 97.3428 125.262L96.1551 129.494ZM93.8382 137.567C94.2276 137.742 94.7143 137.879 95.4153 138.074C97.2844 138.6 99.1146 138.366 99.6598 136.455C100.185 134.622 98.7447 133.413 96.7003 132.828L95.2984 132.419L93.8382 137.567Z" fill="#96D9C9"/>
<path d="M270.083 129.24C270.317 130.254 269.694 131.268 268.682 131.522C267.747 131.756 266.54 131.931 265.157 131.97C257.992 132.204 254.157 127.875 253.962 121.967C253.728 114.888 258.635 110.774 264.904 110.559C266.15 110.52 267.241 110.618 268.136 110.774C269.207 110.969 269.889 112.002 269.655 113.055L269.636 113.114C269.421 114.108 268.467 114.752 267.455 114.576C266.793 114.459 266.053 114.401 265.235 114.42C261.516 114.537 258.693 116.897 258.849 121.518C258.985 125.672 261.536 128.207 265.722 128.07C266.423 128.051 267.143 127.953 267.825 127.797C268.857 127.583 269.85 128.226 270.083 129.24Z" fill="#2F2F2F"/>
<path d="M37.7442 225.843C37.238 224.361 38.0752 222.684 39.5744 222.197C41.1126 221.69 42.5339 222.45 43.118 223.991C43.6826 225.551 43.0596 227.091 41.4436 227.676C39.7886 228.261 38.2699 227.442 37.7442 225.843ZM37.238 221.339L32.4093 209.795C32.0199 208.839 32.4872 207.747 33.4607 207.396L34.629 206.967C35.6025 206.616 36.6733 207.143 36.9654 208.137L40.6258 220.11L37.238 221.339Z" fill="#466EB6"/>
<path d="M281.59 46.4044H234.005C221.252 46.4044 210.913 36.0499 210.913 23.2774C210.913 10.5049 221.252 0.150391 234.005 0.150391H281.59C294.343 0.150391 304.682 10.5049 304.682 23.2774C304.682 36.0499 294.343 46.4044 281.59 46.4044Z" fill="#9BC1F9"/>
<path d="M215.644 26.8655L205.13 38.975L221.875 36.1475L215.644 26.8655Z" fill="#9BC1F9"/>
<path d="M224.484 17.9733H292.98C293.876 17.9733 294.616 17.2323 294.616 16.3353C294.616 15.4383 293.876 14.6973 292.98 14.6973H224.484C223.588 14.6973 222.848 15.4383 222.848 16.3353C222.848 17.2518 223.569 17.9733 224.484 17.9733Z" fill="white"/>
<path d="M224.484 30.1415H292.98C293.876 30.1415 294.616 29.4005 294.616 28.5035C294.616 27.6065 293.876 26.8655 292.98 26.8655H224.484C223.588 26.8655 222.848 27.6065 222.848 28.5035C222.848 29.4005 223.569 30.1415 224.484 30.1415Z" fill="white"/>
<path d="M165.722 62.492C172.44 57.0515 190.002 64.5785 192.63 68.0885C195.201 71.54 200.438 107.966 196.583 110.482C192.728 112.997 180.831 118.106 175.886 113.602C170.921 109.097 165.722 62.492 165.722 62.492Z" fill="#3259A1"/>
<path d="M159.706 60.5419C159.706 60.5419 148.316 54.7114 146.758 51.8059C145.22 48.9004 138.776 39.1504 138.776 39.1504C138.776 39.1504 135.485 39.5599 134.609 41.0419C135.68 45.0589 138.97 56.1934 143.195 59.4889C147.44 62.7649 158.616 69.5314 158.616 69.5314L159.706 60.5419Z" fill="#FFA283"/>
<path d="M157.448 129.26C157.448 129.26 157.058 137.177 157.058 142.013C157.058 146.849 164.476 165.764 163.814 168.475C163.133 171.185 170.804 170.815 170.804 170.815C170.804 170.815 171.33 156.112 169.344 149.17C167.358 142.208 169.344 127.934 169.344 127.934L157.448 129.26Z" fill="#FFA283"/>
<path d="M176.061 125.438C176.061 125.438 178.553 138.522 180.578 141.525C182.603 144.528 193.507 164.886 193.507 167.499C193.507 170.112 200.36 167.987 200.36 167.987C200.36 167.987 194.577 145.679 192.261 138.912C189.944 132.146 189.087 126.549 189.087 126.549L176.061 125.438Z" fill="#FFA283"/>
<path d="M157.35 112.451C156.649 116.76 153.768 142.91 153.768 142.91C153.768 142.91 163.6 145.932 169.48 144.587C169.48 144.587 169.325 123.546 170.668 123.546C170.687 123.546 170.687 123.546 170.707 123.546C172.634 123.566 174.328 124.911 174.796 126.783C175.925 131.307 179.021 144.977 179.021 144.977C179.021 144.977 191.443 143.241 194.149 141.993C194.149 141.993 190.002 112.412 185.465 107.868L180.033 102.974L160.212 100.419C160.193 100.439 157.857 109.409 157.35 112.451Z" fill="#13375B"/>
<path d="M152.132 176.762H173.199C173.199 176.762 173.627 169.138 172.187 167.695C170.746 166.252 171.135 167.87 168.721 168.806C166.307 169.723 164.749 167.5 163.639 166.408C162.529 165.296 163.328 169.937 158.694 169.937C154.079 169.918 151.081 174.656 152.132 176.762Z" fill="#466EB6"/>
<path d="M193.292 166.661C192.202 166.914 188.775 169.722 187.646 172.745C186.517 175.767 186.828 176.859 186.828 176.859C186.828 176.859 190.314 178.419 197.011 177.912C203.709 177.425 202.677 176.684 202.677 176.684C202.677 176.684 202.19 169.781 201.061 167.694C199.912 165.608 195.201 166.212 193.292 166.661Z" fill="#466EB6"/>
<path d="M198.218 81.6799C205.091 92.7949 209.083 100.439 205.228 105.255C201.022 110.54 192.144 109.506 188.035 113.972C184.18 112.548 183.402 108.726 183.402 108.726C183.402 108.726 184.979 108.219 187.373 107.439C195.298 103.988 198.627 101.96 197.537 98.1964C196.447 94.4329 192.572 89.4214 192.572 89.4214C194.344 81.3484 198.218 81.6799 198.218 81.6799Z" fill="#FFA283"/>
<path d="M202.327 83.6691C202.327 83.6691 197.07 91.4496 192.942 91.6056C190.236 87.5301 189.028 85.1901 189.009 85.6386C188.97 86.1456 188.99 99.4446 188.289 106.718C182.856 109.877 157.311 107.791 157.292 104.456C157.272 101.921 163.444 76.4346 159.901 73.6461C158.616 72.6321 147.654 66.7431 147.654 66.7431C147.654 66.7431 152.23 57.7341 155.053 54.9456C155.053 54.9456 160.543 57.8316 165.8 59.9376C172.693 62.7066 178.476 63.4866 182.311 65.2611C195.785 71.5401 196.797 74.5626 202.327 83.6691Z" fill="#F47458"/>
<path d="M182.876 65.5339C179.293 76.2394 183.869 99.0544 188.931 104.748C190.391 101.219 184.764 86.8669 188.931 68.6539C189.048 67.7374 183.226 64.5589 182.876 65.5339Z" fill="#466EB6"/>
<path d="M172.888 62.3556C167.708 67.9911 159.94 88.9146 159.784 89.9481C160.018 71.6571 166.988 62.9991 168.137 60.8736C168.916 60.3666 172.985 61.8096 172.888 62.3556Z" fill="#466EB6"/>
<path d="M171.992 57.0126V66.5676C171.992 66.5676 175.497 70.3311 180.014 67.7181L182.097 55.4136L171.992 57.0126Z" fill="#FFA283"/>
<path opacity="0.68" d="M171.992 61.8291C174.874 62.5506 178.456 61.3221 181.513 58.8846L182.097 55.4136L171.992 56.9931V61.8291Z" fill="#FF7F4C"/>
<path d="M172.264 40.4374C172.264 40.4374 162.413 52.2739 166.91 58.0849C171.388 63.8959 181.571 59.9569 186.614 52.6054C191.618 45.2539 174.114 34.9579 172.264 40.4374Z" fill="#FFA283"/>
<path d="M181.883 44.708C181.883 44.708 185.485 44.825 184.064 48.218C182.642 51.611 180.072 52.7615 181.435 54.146C182.37 55.082 181.844 57.0125 181.416 58.124C181.201 58.6895 181.162 59.333 181.338 59.918L181.357 59.996C181.747 61.3025 183.012 62.1605 184.375 62.0435C187.685 61.751 193.234 60.0935 192.923 52.0595C192.923 52.0595 195.687 46.9115 192.942 42.953C190.197 39.014 188.113 39.3455 188.113 39.3455C188.113 39.3455 187.12 35.621 184.064 34.7435C181.007 33.866 172.031 30.6875 171.038 35.621C170.064 40.5545 174.445 44.162 181.883 44.708Z" fill="#011037"/>
<path d="M180.909 50.909C181.162 50.7725 184.803 49.0955 185.349 51.1625C185.855 53.0735 185.154 56.057 182.545 56.057C179.936 56.0375 177.638 52.586 180.909 50.909Z" fill="#FFA283"/>
<path d="M173.199 176.762C173.199 176.762 173.296 175.183 173.258 173.311C170.785 174.383 157.233 174.208 152.307 174.11C151.879 175.105 151.801 176.06 152.132 176.762H173.199Z" fill="#A4C0F5"/>
<path d="M196.992 177.912C203.69 177.425 202.658 176.684 202.658 176.684C202.658 176.684 202.541 175.104 202.307 173.213C197.654 177.386 190.372 175.26 187.198 174.012C186.595 176.079 186.809 176.84 186.809 176.84C186.809 176.84 190.294 178.4 196.992 177.912Z" fill="#A4C0F5"/>
<path d="M135.777 44.6885C137.393 44.24 139.418 43.382 140.917 42.68C140.275 41.822 139.827 41.159 139.73 40.847C139.282 39.404 142.144 33.7295 141.677 33.2615C141.209 32.7935 139.457 35.738 139.165 35.465C138.873 35.1725 138.464 28.6985 137.51 28.718C136.556 28.7375 137.51 34.217 136.906 34.2365C136.303 34.256 135.251 27.704 134.297 28.3865C133.343 29.069 135.621 34.1195 134.979 34.373C134.336 34.646 132.526 29.849 131.844 29.8685C131.163 29.888 131.669 30.941 132.156 32.2085C132.642 33.476 133.46 35.2115 133.071 35.2115C132.681 35.2115 130.773 32.189 130.111 32.423C129.449 32.657 134.804 41.393 135.271 43.3235C135.329 43.5575 135.505 44.045 135.777 44.6885Z" fill="#FFA283"/>
</svg>
