<svg width="357" height="85" viewBox="0 0 357 85" fill="none" xmlns="http://www.w3.org/2000/svg">
<path d="M93.4573 34.2312H320.795C329.478 34.2312 336.505 28.3241 336.505 21.033V13.1981C336.505 5.90701 329.478 0 320.795 0H93.4573C103.85 9.54024 104.037 24.1224 93.8848 33.8357L93.4573 34.2312Z" fill="#86B1F2"/>
<path d="M96.6368 3.92957H211.041C218.922 3.92957 225.308 9.83661 225.308 17.1277C225.308 24.4188 218.922 30.3259 211.041 30.3259H96.6368C101.98 22.2192 101.98 11.9869 96.6368 3.92957Z" fill="#FAE0B2"/>
<path d="M-3.05176e-05 34.157H337.788C348.288 34.157 356.784 42.0165 356.784 51.7298V66.5098C356.784 76.223 348.288 84.0826 337.788 84.0826H-3.05176e-05L0.186951 83.9096C14.6143 69.9947 14.5342 47.9977 -3.05176e-05 34.157Z" fill="#B75742"/>
<path d="M5.98476 41.5471H186.567C197.067 41.5471 205.563 49.4066 205.563 59.1199C205.563 68.8331 197.067 76.6927 186.567 76.6927H5.98476C12.6107 65.8178 12.6107 52.4219 5.98476 41.5471Z" fill="#FAE0B2"/>
</svg>
