<svg width="357" height="124" viewBox="0 0 357 124" fill="none" xmlns="http://www.w3.org/2000/svg">
<path d="M263.326 73.3562H35.9882C27.3051 73.3562 20.2784 67.4491 20.2784 60.158V52.3231C20.2784 45.032 27.3051 39.125 35.9882 39.125H263.326C252.933 48.6652 252.746 63.2474 262.899 72.9607L263.326 73.3562Z" fill="#86B1F2"/>
<path d="M260.147 43.0547H145.743C137.862 43.0547 131.476 48.9617 131.476 56.2528C131.476 63.544 137.862 69.451 145.743 69.451H260.147C254.803 61.3443 254.803 51.112 260.147 43.0547Z" fill="#FAE0B2"/>
<path d="M253.094 1.70539C253.601 0.914485 252.826 0 251.678 0H70.6407C56.4538 0 44.9386 8.77406 44.9386 19.6242C44.9386 30.4497 56.4538 39.2484 70.6407 39.2484H251.731C252.88 39.2484 253.655 38.334 253.147 37.5431C245.96 26.1739 245.987 12.9757 253.094 1.70539Z" fill="#355389"/>
<path d="M251.651 4.20166H130.167C121.19 4.20166 113.923 10.9243 113.923 19.2288V20.3657C113.923 28.6701 121.19 35.3928 130.167 35.3928H251.891C246.468 25.4077 246.388 14.2115 251.651 4.20166Z" fill="#FAE0B2"/>
<path d="M356.784 73.282H18.996C8.49613 73.282 0 81.1415 0 90.8548V105.635C0 115.348 8.49613 123.208 18.996 123.208H356.784L356.597 123.035C342.169 109.12 342.249 87.1227 356.784 73.282Z" fill="#B75742"/>
<path d="M350.799 80.6721H170.216C159.716 80.6721 151.22 88.5317 151.22 98.2449C151.22 107.958 159.716 115.818 170.216 115.818H350.799C344.173 104.943 344.173 91.547 350.799 80.6721Z" fill="#FAE0B2"/>
</svg>
